# Blender v2.79 (sub 0) OBJ File: 'TechDemoMap.blend'
# www.blender.org
mtllib TechDemoMap.mtl
o Walls_Plane.001
v -40.000000 1.000000 -40.000000
v 40.000000 1.000000 -40.000000
v -40.000000 21.000000 -40.000000
v 40.000000 21.000000 -40.000000
v 40.000000 21.000000 40.000000
v 40.000000 1.000000 40.000000
v -40.000000 1.000000 40.000000
v -40.000000 21.000000 40.000000
v 30.000000 1.000000 5.000000
v 30.000000 6.000000 5.000000
v 30.000000 6.000000 -5.000000
v 30.000000 1.000000 -5.000000
v 30.000000 1.000000 5.000000
v 30.000000 6.000000 5.000000
v 40.000000 6.000000 5.000000
v 40.000000 1.000000 5.000000
v 40.000000 1.000000 -5.000000
v 40.000000 6.000000 -5.000000
v 30.000000 6.000000 -5.000000
v 30.000000 1.000000 -5.000000
v 36.000000 4.000000 6.000000
v 36.000000 5.000000 6.000000
v 40.000000 5.000000 6.000000
v 40.000000 4.000000 6.000000
v 36.000000 3.000000 7.000000
v 36.000000 4.000000 7.000000
v 40.000000 4.000000 7.000000
v 40.000000 3.000000 7.000000
v 36.000000 2.000000 8.000000
v 36.000000 3.000000 8.000000
v 40.000000 3.000000 8.000000
v 40.000000 2.000000 8.000000
v 36.000000 1.000000 9.000000
v 36.000000 2.000000 9.000000
v 40.000000 2.000000 9.000000
v 40.000000 1.000000 9.000000
v 36.000000 4.000000 5.000000
v 36.000000 5.000000 5.000000
v 36.000000 5.000000 6.000000
v 36.000000 4.000000 6.000000
v 36.000000 3.000000 5.000000
v 36.000000 4.000000 5.000000
v 36.000000 4.000000 7.000000
v 36.000000 3.000000 7.000000
v 36.000000 2.000000 5.000000
v 36.000000 3.000000 5.000000
v 36.000000 3.000000 8.000000
v 36.000000 2.000000 8.000000
v 36.000000 1.000000 5.000000
v 36.000000 2.000000 5.000000
v 36.000000 2.000000 9.000000
v 36.000000 1.000000 9.000000
v 36.000000 5.500000 -6.000000
v 36.000000 5.750000 -6.000000
v 40.000000 5.750000 -6.000000
v 40.000000 5.500000 -6.000000
v 36.000000 5.250000 -7.000000
v 36.000000 5.500000 -7.000000
v 40.000000 5.500000 -7.000000
v 40.000000 5.250000 -7.000000
v 36.000000 5.000000 -8.000000
v 36.000000 5.250000 -8.000000
v 40.000000 5.250000 -8.000000
v 40.000000 5.000000 -8.000000
v 36.000000 4.750000 -9.000000
v 36.000000 5.000000 -9.000000
v 40.000000 5.000000 -9.000000
v 40.000000 4.750000 -9.000000
v 36.000000 5.500000 -5.000000
v 36.000000 5.750000 -5.000000
v 36.000000 5.750000 -6.000000
v 36.000000 5.500000 -6.000000
v 36.000000 5.250000 -5.000000
v 36.000000 5.500000 -5.000000
v 36.000000 5.500000 -7.000000
v 36.000000 5.250000 -7.000000
v 36.000000 5.000000 -5.000000
v 36.000000 5.250000 -5.000000
v 36.000000 5.250000 -8.000000
v 36.000000 5.000000 -8.000000
v 36.000000 4.750000 -5.000000
v 36.000000 5.000000 -5.000000
v 36.000000 5.000000 -9.000000
v 36.000000 4.750000 -9.000000
v 36.000000 4.500000 -10.000000
v 36.000000 4.750000 -10.000000
v 40.000000 4.750000 -10.000000
v 40.000000 4.500000 -10.000000
v 36.000000 4.250000 -11.000000
v 36.000000 4.500000 -11.000000
v 40.000000 4.500000 -11.000000
v 40.000000 4.250000 -11.000000
v 36.000000 4.000000 -12.000000
v 36.000000 4.250000 -12.000000
v 40.000000 4.250000 -12.000000
v 40.000000 4.000000 -12.000000
v 36.000000 3.750000 -13.000000
v 36.000000 4.000000 -13.000000
v 40.000000 4.000000 -13.000000
v 40.000000 3.750000 -13.000000
v 36.000000 4.500000 -9.000000
v 36.000000 4.750000 -9.000000
v 36.000000 4.750000 -10.000000
v 36.000000 4.500000 -10.000000
v 36.000000 4.250000 -9.000000
v 36.000000 4.500000 -9.000000
v 36.000000 4.500000 -11.000000
v 36.000000 4.250000 -11.000000
v 36.000000 4.000000 -9.000000
v 36.000000 4.250000 -9.000000
v 36.000000 4.250000 -12.000000
v 36.000000 4.000000 -12.000000
v 36.000000 3.750000 -9.000000
v 36.000000 4.000000 -9.000000
v 36.000000 4.000000 -13.000000
v 36.000000 3.750000 -13.000000
v 36.000000 3.500000 -14.000000
v 36.000000 3.750000 -14.000000
v 40.000000 3.750000 -14.000000
v 40.000000 3.500000 -14.000000
v 36.000000 3.250000 -15.000000
v 36.000000 3.500000 -15.000000
v 40.000000 3.500000 -15.000000
v 40.000000 3.250000 -15.000000
v 36.000000 3.000000 -16.000000
v 36.000000 3.250000 -16.000000
v 40.000000 3.250000 -16.000000
v 40.000000 3.000000 -16.000000
v 36.000000 2.750000 -17.000000
v 36.000000 3.000000 -17.000000
v 40.000000 3.000000 -17.000000
v 40.000000 2.750000 -17.000000
v 36.000000 3.500000 -13.000000
v 36.000000 3.750000 -13.000000
v 36.000000 3.750000 -14.000000
v 36.000000 3.500000 -14.000000
v 36.000000 3.250000 -13.000000
v 36.000000 3.500000 -13.000000
v 36.000000 3.500000 -15.000000
v 36.000000 3.250000 -15.000000
v 36.000000 3.000000 -13.000000
v 36.000000 3.250000 -13.000000
v 36.000000 3.250000 -16.000000
v 36.000000 3.000000 -16.000000
v 36.000000 2.750000 -13.000000
v 36.000000 3.000000 -13.000000
v 36.000000 3.000000 -17.000000
v 36.000000 2.750000 -17.000000
v 36.000000 2.500000 -18.000000
v 36.000000 2.750000 -18.000000
v 40.000000 2.750000 -18.000000
v 40.000000 2.500000 -18.000000
v 36.000000 2.250000 -19.000000
v 36.000000 2.500000 -19.000000
v 40.000000 2.500000 -19.000000
v 40.000000 2.250000 -19.000000
v 36.000000 2.000000 -20.000000
v 36.000000 2.250000 -20.000000
v 40.000000 2.250000 -20.000000
v 40.000000 2.000000 -20.000000
v 36.000000 1.750000 -21.000000
v 36.000000 2.000000 -21.000000
v 40.000000 2.000000 -21.000000
v 40.000000 1.750000 -21.000000
v 36.000000 2.500000 -17.000000
v 36.000000 2.750000 -17.000000
v 36.000000 2.750000 -18.000000
v 36.000000 2.500000 -18.000000
v 36.000000 2.250000 -17.000000
v 36.000000 2.500000 -17.000000
v 36.000000 2.500000 -19.000000
v 36.000000 2.250000 -19.000000
v 36.000000 2.000000 -17.000000
v 36.000000 2.250000 -17.000000
v 36.000000 2.250000 -20.000000
v 36.000000 2.000000 -20.000000
v 36.000000 1.750000 -17.000000
v 36.000000 2.000000 -17.000000
v 36.000000 2.000000 -21.000000
v 36.000000 1.750000 -21.000000
v 36.000000 1.500000 -22.000000
v 36.000000 1.750000 -22.000000
v 40.000000 1.750000 -22.000000
v 40.000000 1.500000 -22.000000
v 36.000000 1.250000 -23.000000
v 36.000000 1.500000 -23.000000
v 40.000000 1.500000 -23.000000
v 40.000000 1.250000 -23.000000
v 36.000000 1.000000 -24.000000
v 36.000000 1.250000 -24.000000
v 40.000000 1.250000 -24.000000
v 40.000000 1.000000 -24.000000
v 36.000000 1.500000 -21.000000
v 36.000000 1.750000 -21.000000
v 36.000000 1.750000 -22.000000
v 36.000000 1.500000 -22.000000
v 36.000000 1.250000 -21.000000
v 36.000000 1.500000 -21.000000
v 36.000000 1.500000 -23.000000
v 36.000000 1.250000 -23.000000
v 36.000000 1.000000 -21.000000
v 36.000000 1.250000 -21.000000
v 36.000000 1.250000 -24.000000
v 36.000000 1.000000 -24.000000
v 36.000000 1.000000 -9.000000
v 36.000000 4.750000 -9.000000
v 36.000000 4.750000 -5.000000
v 36.000000 1.000000 -5.000000
v 36.000000 1.000000 -13.000000
v 36.000000 3.750000 -13.000000
v 36.000000 3.750000 -9.000000
v 36.000000 1.000000 -9.000000
v 36.000000 1.000000 -17.000000
v 36.000000 2.750000 -17.000000
v 36.000000 2.750000 -13.000000
v 36.000000 1.000000 -13.000000
v 36.000000 1.750000 -21.000000
v 36.000000 1.000000 -21.000000
v 36.000000 1.750000 -17.000000
v 36.000000 1.000000 -17.000000
v 22.000000 1.000000 5.000000
v 22.000000 6.000000 5.000000
v 22.000000 6.000000 1.000000
v 22.000000 1.000000 1.000000
v 22.000000 1.000000 5.000000
v 22.000000 6.000000 5.000000
v 26.000000 6.000000 5.000000
v 26.000000 1.000000 5.000000
v 26.000000 1.000000 1.000000
v 26.000000 6.000000 1.000000
v 26.000000 6.000000 5.000000
v 26.000000 1.000000 5.000000
v 26.000000 1.000000 1.000000
v 26.000000 6.000000 1.000000
v 22.000000 6.000000 1.000000
v 22.000000 1.000000 1.000000
vt -38.994942 -8.999185
vt 40.994942 -8.999185
vt 40.994942 10.999232
vt -38.994934 10.999232
vt 40.994942 -8.999185
vt 40.994934 10.999232
vt -38.994942 10.999232
vt -38.994942 -8.999185
vt -38.994942 -8.999185
vt 40.994942 -8.999185
vt 40.994942 10.999232
vt -38.994934 10.999232
vt 40.994942 -8.999185
vt 40.994934 10.999232
vt -38.994942 10.999232
vt -38.994942 -8.999185
vt 5.989189 -0.994946
vt 5.998358 3.980698
vt -3.999645 3.996278
vt -3.999448 -0.996279
vt 5.989189 -0.994946
vt 5.998358 3.980698
vt -3.999645 3.996278
vt -3.999448 -0.996279
vt 5.989189 -0.994946
vt 5.998358 3.980698
vt -3.999645 3.996278
vt -3.999448 -0.996279
vt 3.999996 0.000000
vt 3.999996 1.000000
vt 0.000000 1.000000
vt 0.000000 0.000000
vt 3.999996 0.000000
vt 3.999996 1.000000
vt 0.000000 1.000000
vt 0.000000 0.000000
vt 3.999996 0.000000
vt 3.999996 1.000000
vt 0.000000 1.000000
vt 0.000000 0.000000
vt 3.999996 0.000000
vt 3.999996 1.000000
vt 0.000000 1.000000
vt 0.000000 0.000000
vt 1.000000 0.000000
vt 1.000000 1.000000
vt 0.000000 1.000000
vt 0.000000 0.000000
vt 2.000000 0.000000
vt 2.000000 1.000000
vt 0.000000 1.000000
vt 0.000000 0.000000
vt 3.000000 0.000000
vt 3.000000 1.000000
vt 0.000000 1.000000
vt 0.000000 0.000000
vt 3.999996 0.000000
vt 3.999996 1.000000
vt 0.000000 1.000000
vt 0.000000 0.000000
vt 0.000000 0.499017
vt 3.999996 0.499017
vt 3.999996 0.750000
vt 0.000000 0.750000
vt 0.000000 0.250000
vt 3.999996 0.250000
vt 3.999996 0.499017
vt 0.000000 0.499017
vt 0.000000 0.000000
vt 3.999996 0.000000
vt 3.999996 0.250000
vt 0.000000 0.250000
vt 0.000000 -0.250000
vt 3.999996 -0.250000
vt 3.999996 0.000000
vt 0.000000 0.000000
vt 3.000000 0.499017
vt 3.999996 0.499017
vt 3.999996 0.750000
vt 3.000000 0.750000
vt 2.000000 0.250000
vt 3.999996 0.250000
vt 3.999996 0.499017
vt 2.000000 0.499017
vt 1.000000 0.000000
vt 3.999996 0.000000
vt 3.999996 0.250000
vt 1.000000 0.250000
vt 0.000000 0.750000
vt 3.999996 0.750000
vt 3.999996 1.000000
vt 0.000000 1.000000
vt 0.000000 0.499017
vt 3.999996 0.499017
vt 3.999996 0.750000
vt 0.000000 0.750000
vt 0.000000 0.250000
vt 3.999996 0.250000
vt 3.999996 0.499017
vt 0.000000 0.499017
vt 0.000000 0.000000
vt 3.999996 0.000000
vt 3.999996 0.250000
vt 0.000000 0.250000
vt 0.000000 -0.250000
vt 3.999996 -0.250000
vt 3.999996 0.000000
vt 0.000000 0.000000
vt 3.000000 0.499017
vt 3.999996 0.499017
vt 3.999996 0.750000
vt 3.000000 0.750000
vt 2.000000 0.250000
vt 3.999996 0.250000
vt 3.999996 0.499017
vt 2.000000 0.499017
vt 1.000000 0.000000
vt 3.999996 0.000000
vt 3.999996 0.250000
vt 1.000000 0.250000
vt 0.000000 0.750000
vt 3.999996 0.750000
vt 3.999996 1.000000
vt 0.000000 1.000000
vt 0.000000 0.499017
vt 3.999996 0.499017
vt 3.999996 0.750000
vt 0.000000 0.750000
vt 0.000000 0.250000
vt 3.999996 0.250000
vt 3.999996 0.499017
vt 0.000000 0.499017
vt 0.000000 0.000000
vt 3.999996 0.000000
vt 3.999996 0.250000
vt 0.000000 0.250000
vt 0.000000 -0.250000
vt 3.999996 -0.250000
vt 3.999996 0.000000
vt 0.000000 0.000000
vt 3.000000 0.499017
vt 3.999996 0.499017
vt 3.999996 0.750000
vt 3.000000 0.750000
vt 2.000000 0.250000
vt 3.999996 0.250000
vt 3.999996 0.499017
vt 2.000000 0.499017
vt 1.000000 0.000000
vt 3.999996 0.000000
vt 3.999996 0.250000
vt 1.000000 0.250000
vt 0.000000 0.750000
vt 3.999996 0.750000
vt 3.999996 1.000000
vt 0.000000 1.000000
vt 0.000000 0.499017
vt 3.999996 0.499017
vt 3.999996 0.750000
vt 0.000000 0.750000
vt 0.000000 0.250000
vt 3.999996 0.250000
vt 3.999996 0.499017
vt 0.000000 0.499017
vt 0.000000 0.000000
vt 3.999996 0.000000
vt 3.999996 0.250000
vt 0.000000 0.250000
vt 0.000000 -0.250000
vt 3.999996 -0.250000
vt 3.999996 0.000000
vt 0.000000 0.000000
vt 3.000000 0.499017
vt 3.999996 0.499017
vt 3.999996 0.750000
vt 3.000000 0.750000
vt 2.000000 0.250000
vt 3.999996 0.250000
vt 3.999996 0.499017
vt 2.000000 0.499017
vt 1.000000 0.000000
vt 3.999996 0.000000
vt 3.999996 0.250000
vt 1.000000 0.250000
vt 0.000000 0.750000
vt 3.999996 0.750000
vt 3.999996 1.000000
vt 0.000000 1.000000
vt 0.000000 0.499017
vt 3.999996 0.499017
vt 3.999996 0.750000
vt 0.000000 0.750000
vt 0.000000 0.250000
vt 3.999996 0.250000
vt 3.999996 0.499017
vt 0.000000 0.499017
vt 0.000000 0.000000
vt 3.999996 0.000000
vt 3.999996 0.250000
vt 0.000000 0.250000
vt 3.000000 0.499017
vt 3.999996 0.499017
vt 3.999996 0.750000
vt 3.000000 0.750000
vt 2.000000 0.250000
vt 3.999996 0.250000
vt 3.999996 0.499017
vt 2.000000 0.499017
vt 1.000000 0.000000
vt 3.999996 0.000000
vt 3.999996 0.250000
vt 1.000000 0.250000
vt 3.999996 0.000000
vt 3.999996 3.745174
vt 0.000000 3.749069
vt 0.000000 0.000000
vt 3.999996 0.000000
vt 3.999996 2.745174
vt 0.000000 2.749069
vt 0.000000 0.000000
vt 3.999996 0.000000
vt 3.999996 1.745174
vt 0.000000 1.749069
vt 0.000000 0.000000
vt 3.999996 0.000000
vt 3.999996 0.745174
vt 0.000000 0.749069
vt 0.000000 0.000000
vt 2.995290 -0.994946
vt 2.998956 3.980698
vt -1.000244 3.996278
vt -1.000166 -0.996279
vt 2.995290 -0.994946
vt 2.998956 3.980698
vt -1.000244 3.996278
vt -1.000166 -0.996279
vt 2.995290 -0.994946
vt 2.998956 3.980698
vt -1.000244 3.996278
vt -1.000166 -0.996279
vt 2.995290 -0.994946
vt 2.998956 3.980698
vt -1.000244 3.996278
vt -1.000166 -0.996279
vn 0.0000 0.0000 1.0000
vn -1.0000 0.0000 0.0000
vn 0.0000 0.0000 -1.0000
vn 1.0000 0.0000 0.0000
usemtl WallsMat
s off
f 1/1/1 2/2/1 4/3/1 3/4/1
f 6/5/2 5/6/2 4/7/2 2/8/2
f 6/9/3 7/10/3 8/11/3 5/12/3
f 1/13/4 3/14/4 8/15/4 7/16/4
f 9/17/2 10/18/2 11/19/2 12/20/2
f 16/21/1 15/22/1 14/23/1 13/24/1
f 20/25/3 19/26/3 18/27/3 17/28/3
f 24/29/1 23/30/1 22/31/1 21/32/1
f 28/33/1 27/34/1 26/35/1 25/36/1
f 32/37/1 31/38/1 30/39/1 29/40/1
f 36/41/1 35/42/1 34/43/1 33/44/1
f 40/45/2 39/46/2 38/47/2 37/48/2
f 44/49/2 43/50/2 42/51/2 41/52/2
f 48/53/2 47/54/2 46/55/2 45/56/2
f 52/57/2 51/58/2 50/59/2 49/60/2
f 56/61/3 53/62/3 54/63/3 55/64/3
f 60/65/3 57/66/3 58/67/3 59/68/3
f 64/69/3 61/70/3 62/71/3 63/72/3
f 68/73/3 65/74/3 66/75/3 67/76/3
f 72/77/2 69/78/2 70/79/2 71/80/2
f 76/81/2 73/82/2 74/83/2 75/84/2
f 80/85/2 77/86/2 78/87/2 79/88/2
f 84/89/2 81/90/2 82/91/2 83/92/2
f 88/93/3 85/94/3 86/95/3 87/96/3
f 92/97/3 89/98/3 90/99/3 91/100/3
f 96/101/3 93/102/3 94/103/3 95/104/3
f 100/105/3 97/106/3 98/107/3 99/108/3
f 104/109/2 101/110/2 102/111/2 103/112/2
f 108/113/2 105/114/2 106/115/2 107/116/2
f 112/117/2 109/118/2 110/119/2 111/120/2
f 116/121/2 113/122/2 114/123/2 115/124/2
f 120/125/3 117/126/3 118/127/3 119/128/3
f 124/129/3 121/130/3 122/131/3 123/132/3
f 128/133/3 125/134/3 126/135/3 127/136/3
f 132/137/3 129/138/3 130/139/3 131/140/3
f 136/141/2 133/142/2 134/143/2 135/144/2
f 140/145/2 137/146/2 138/147/2 139/148/2
f 144/149/2 141/150/2 142/151/2 143/152/2
f 148/153/2 145/154/2 146/155/2 147/156/2
f 152/157/3 149/158/3 150/159/3 151/160/3
f 156/161/3 153/162/3 154/163/3 155/164/3
f 160/165/3 157/166/3 158/167/3 159/168/3
f 164/169/3 161/170/3 162/171/3 163/172/3
f 168/173/2 165/174/2 166/175/2 167/176/2
f 172/177/2 169/178/2 170/179/2 171/180/2
f 176/181/2 173/182/2 174/183/2 175/184/2
f 180/185/2 177/186/2 178/187/2 179/188/2
f 184/189/3 181/190/3 182/191/3 183/192/3
f 188/193/3 185/194/3 186/195/3 187/196/3
f 192/197/3 189/198/3 190/199/3 191/200/3
f 196/201/2 193/202/2 194/203/2 195/204/2
f 200/205/2 197/206/2 198/207/2 199/208/2
f 204/209/2 201/210/2 202/211/2 203/212/2
f 208/213/2 207/214/2 206/215/2 205/216/2
f 212/217/2 211/218/2 210/219/2 209/220/2
f 216/221/2 215/222/2 214/223/2 213/224/2
f 220/225/2 219/226/2 217/227/2 218/228/2
f 221/229/2 222/230/2 223/231/2 224/232/2
f 228/233/1 227/234/1 226/235/1 225/236/1
f 229/237/4 230/238/4 231/239/4 232/240/4
f 236/241/3 235/242/3 234/243/3 233/244/3
o Floors_Plane
v -40.000000 1.000000 40.000000
v 40.000000 1.000000 40.000000
v -40.000000 1.000000 -40.000000
v 40.000000 1.000000 -40.000000
v 30.000000 6.000000 -5.000000
v 30.000000 6.000000 5.000000
v 40.000000 6.000000 -5.000000
v 40.000000 6.000000 5.000000
v 36.000000 5.000000 5.000000
v 36.000000 5.000000 6.000000
v 40.000000 5.000000 5.000000
v 40.000000 5.000000 6.000000
v 36.000000 4.000000 6.000000
v 36.000000 4.000000 7.000000
v 40.000000 4.000000 6.000000
v 40.000000 4.000000 7.000000
v 36.000000 3.000000 7.000000
v 36.000000 3.000000 8.000000
v 40.000000 3.000000 7.000000
v 40.000000 3.000000 8.000000
v 36.000000 2.000000 8.000000
v 36.000000 2.000000 9.000000
v 40.000000 2.000000 8.000000
v 40.000000 2.000000 9.000000
v 40.000000 5.750000 -5.000000
v 40.000000 5.750000 -6.000000
v 36.000000 5.750000 -5.000000
v 36.000000 5.750000 -6.000000
v 40.000000 5.500000 -6.000000
v 40.000000 5.500000 -7.000000
v 36.000000 5.500000 -6.000000
v 36.000000 5.500000 -7.000000
v 40.000000 5.250000 -7.000000
v 40.000000 5.250000 -8.000000
v 36.000000 5.250000 -7.000000
v 36.000000 5.250000 -8.000000
v 40.000000 5.000000 -8.000000
v 40.000000 5.000000 -9.000000
v 36.000000 5.000000 -8.000000
v 36.000000 5.000000 -9.000000
v 40.000000 4.750000 -9.000000
v 40.000000 4.750000 -10.000000
v 36.000000 4.750000 -9.000000
v 36.000000 4.750000 -10.000000
v 40.000000 4.500000 -10.000000
v 40.000000 4.500000 -11.000000
v 36.000000 4.500000 -10.000000
v 36.000000 4.500000 -11.000000
v 40.000000 4.250000 -11.000000
v 40.000000 4.250000 -12.000000
v 36.000000 4.250000 -11.000000
v 36.000000 4.250000 -12.000000
v 40.000000 4.000000 -12.000000
v 40.000000 4.000000 -13.000000
v 36.000000 4.000000 -12.000000
v 36.000000 4.000000 -13.000000
v 40.000000 3.750000 -13.000000
v 40.000000 3.750000 -14.000000
v 36.000000 3.750000 -13.000000
v 36.000000 3.750000 -14.000000
v 40.000000 3.500000 -14.000000
v 40.000000 3.500000 -15.000000
v 36.000000 3.500000 -14.000000
v 36.000000 3.500000 -15.000000
v 40.000000 3.250000 -15.000000
v 40.000000 3.250000 -16.000000
v 36.000000 3.250000 -15.000000
v 36.000000 3.250000 -16.000000
v 40.000000 3.000000 -16.000000
v 40.000000 3.000000 -17.000000
v 36.000000 3.000000 -16.000000
v 36.000000 3.000000 -17.000000
v 40.000000 2.750000 -17.000000
v 40.000000 2.750000 -18.000000
v 36.000000 2.750000 -17.000000
v 36.000000 2.750000 -18.000000
v 40.000000 2.500000 -18.000000
v 40.000000 2.500000 -19.000000
v 36.000000 2.500000 -18.000000
v 36.000000 2.500000 -19.000000
v 40.000000 2.250000 -19.000000
v 40.000000 2.250000 -20.000000
v 36.000000 2.250000 -19.000000
v 36.000000 2.250000 -20.000000
v 40.000000 2.000000 -20.000000
v 40.000000 2.000000 -21.000000
v 36.000000 2.000000 -20.000000
v 36.000000 2.000000 -21.000000
v 40.000000 1.750000 -21.000000
v 40.000000 1.750000 -22.000000
v 36.000000 1.750000 -21.000000
v 36.000000 1.750000 -22.000000
v 40.000000 1.500000 -22.000000
v 40.000000 1.500000 -23.000000
v 36.000000 1.500000 -22.000000
v 36.000000 1.500000 -23.000000
v 40.000000 1.250000 -23.000000
v 40.000000 1.250000 -24.000000
v 36.000000 1.250000 -23.000000
v 36.000000 1.250000 -24.000000
v 38.000000 17.000000 -40.000000
v 38.000000 1.000000 -40.000000
v 38.000000 17.000000 -38.000000
v 38.000000 1.000000 -38.000000
v 40.000000 17.000000 -38.000000
v 40.000000 1.000000 -38.000000
v 40.000000 17.000000 -40.000000
v 40.000000 17.000000 38.000000
v 40.000000 1.000000 38.000000
v 38.000000 17.000000 38.000000
v 38.000000 1.000000 38.000000
v 38.000000 17.000000 40.000000
v 38.000000 1.000000 40.000000
v 40.000000 17.000000 40.000000
v -37.999996 17.000000 40.000000
v -37.999996 1.000000 40.000000
v -37.999996 17.000000 38.000000
v -37.999996 1.000000 38.000000
v -39.999996 17.000000 38.000000
v -39.999996 1.000000 38.000000
v -39.999996 17.000000 40.000000
v -40.000004 17.000000 -38.000000
v -40.000004 1.000000 -38.000000
v -38.000004 17.000000 -38.000000
v -38.000004 1.000000 -38.000000
v -38.000004 17.000000 -40.000000
v -38.000004 1.000000 -40.000000
v -40.000004 17.000000 -40.000000
v 22.000000 6.000000 1.000000
v 22.000000 6.000000 5.000000
v 26.000000 6.000000 1.000000
v 26.000000 6.000000 5.000000
vt -39.991734 -38.992172
vt 39.992275 -38.992188
vt 39.992275 40.991806
vt -39.991703 40.991806
vt -4.998730 -3.999187
vt 4.999271 -3.999191
vt 4.999271 5.998810
vt -4.998726 5.998810
vt 0.000100 0.999900
vt 0.000050 0.000050
vt 3.999900 0.000100
vt 3.999900 0.999900
vt 0.000100 0.999900
vt 0.000050 0.000050
vt 3.999900 0.000100
vt 3.999900 0.999900
vt 0.000100 0.999900
vt 0.000050 0.000050
vt 3.999900 0.000100
vt 3.999900 0.999900
vt 0.000100 0.999900
vt 0.000050 0.000050
vt 3.999900 0.000100
vt 3.999900 0.999900
vt 0.000100 0.999900
vt 0.000050 0.000050
vt 3.999900 0.000100
vt 3.999900 0.999900
vt 0.000100 0.999900
vt 0.000050 0.000050
vt 3.999900 0.000100
vt 3.999900 0.999900
vt 0.000100 0.999900
vt 0.000050 0.000050
vt 3.999900 0.000100
vt 3.999900 0.999900
vt 0.000100 0.999900
vt 0.000050 0.000050
vt 3.999900 0.000100
vt 3.999900 0.999900
vt 0.000100 0.999900
vt 0.000050 0.000050
vt 3.999900 0.000100
vt 3.999900 0.999900
vt 0.000100 0.999900
vt 0.000050 0.000050
vt 3.999900 0.000100
vt 3.999900 0.999900
vt 0.000100 0.999900
vt 0.000050 0.000050
vt 3.999900 0.000100
vt 3.999900 0.999900
vt 0.000100 0.999900
vt 0.000050 0.000050
vt 3.999900 0.000100
vt 3.999900 0.999900
vt 0.000100 0.999900
vt 0.000050 0.000050
vt 3.999900 0.000100
vt 3.999900 0.999900
vt 0.000100 0.999900
vt 0.000050 0.000050
vt 3.999900 0.000100
vt 3.999900 0.999900
vt 0.000100 0.999900
vt 0.000050 0.000050
vt 3.999900 0.000100
vt 3.999900 0.999900
vt 0.000100 0.999900
vt 0.000050 0.000050
vt 3.999900 0.000100
vt 3.999900 0.999900
vt 0.000100 0.999900
vt 0.000050 0.000050
vt 3.999900 0.000100
vt 3.999900 0.999900
vt 0.000100 0.999900
vt 0.000050 0.000050
vt 3.999900 0.000100
vt 3.999900 0.999900
vt 0.000100 0.999900
vt 0.000050 0.000050
vt 3.999900 0.000100
vt 3.999900 0.999900
vt 0.000100 0.999900
vt 0.000050 0.000050
vt 3.999900 0.000100
vt 3.999900 0.999900
vt 0.000100 0.999900
vt 0.000050 0.000050
vt 3.999900 0.000100
vt 3.999900 0.999900
vt 0.000100 0.999900
vt 0.000050 0.000050
vt 3.999900 0.000100
vt 3.999900 0.999900
vt 0.000100 0.999900
vt 0.000050 0.000050
vt 3.999900 0.000100
vt 3.999900 0.999900
vt 0.000000 16.000000
vt 0.000050 0.000050
vt 2.000000 0.000000
vt 2.000000 16.000000
vt 0.000000 16.000000
vt 0.000050 0.000050
vt 2.000000 0.000000
vt 2.000000 16.000000
vt -0.000012 2.000000
vt 0.000025 0.000000
vt 2.000000 0.000000
vt 2.000000 2.000000
vt 0.000000 16.000000
vt 0.000050 0.000050
vt 2.000000 0.000000
vt 2.000000 16.000000
vt 0.000000 16.000000
vt 0.000050 0.000050
vt 2.000000 0.000000
vt 2.000000 16.000000
vt -0.000012 2.000000
vt 0.000025 0.000000
vt 2.000000 0.000000
vt 2.000000 2.000000
vt 0.000000 16.000000
vt 0.000050 0.000050
vt 2.000000 0.000000
vt 2.000000 16.000000
vt 0.000000 16.000000
vt 0.000050 0.000050
vt 2.000000 0.000000
vt 2.000000 16.000000
vt -0.000012 2.000000
vt 0.000025 0.000000
vt 2.000000 0.000000
vt 2.000000 2.000000
vt 0.000000 16.000000
vt 0.000050 0.000050
vt 2.000000 0.000000
vt 2.000000 16.000000
vt 0.000000 16.000000
vt 0.000050 0.000050
vt 2.000000 0.000000
vt 2.000000 16.000000
vt -0.000012 2.000000
vt 0.000025 0.000000
vt 2.000000 0.000000
vt 2.000000 2.000000
vt -1.999329 -0.999790
vt 1.999870 -0.999790
vt 1.999870 2.999409
vt -1.999329 2.999409
vn 0.0000 1.0000 0.0000
vn -1.0000 0.0000 0.0000
vn 0.0000 0.0000 1.0000
vn 0.0000 0.0000 -1.0000
vn 1.0000 0.0000 0.0000
usemtl FloorsMat
s off
f 237/245/5 238/246/5 240/247/5 239/248/5
f 241/249/5 242/250/5 244/251/5 243/252/5
f 245/253/5 246/254/5 248/255/5 247/256/5
f 249/257/5 250/258/5 252/259/5 251/260/5
f 253/261/5 254/262/5 256/263/5 255/264/5
f 257/265/5 258/266/5 260/267/5 259/268/5
f 261/269/5 262/270/5 264/271/5 263/272/5
f 265/273/5 266/274/5 268/275/5 267/276/5
f 269/277/5 270/278/5 272/279/5 271/280/5
f 273/281/5 274/282/5 276/283/5 275/284/5
f 277/285/5 278/286/5 280/287/5 279/288/5
f 281/289/5 282/290/5 284/291/5 283/292/5
f 285/293/5 286/294/5 288/295/5 287/296/5
f 289/297/5 290/298/5 292/299/5 291/300/5
f 293/301/5 294/302/5 296/303/5 295/304/5
f 297/305/5 298/306/5 300/307/5 299/308/5
f 301/309/5 302/310/5 304/311/5 303/312/5
f 305/313/5 306/314/5 308/315/5 307/316/5
f 309/317/5 310/318/5 312/319/5 311/320/5
f 313/321/5 314/322/5 316/323/5 315/324/5
f 317/325/5 318/326/5 320/327/5 319/328/5
f 321/329/5 322/330/5 324/331/5 323/332/5
f 325/333/5 326/334/5 328/335/5 327/336/5
f 329/337/5 330/338/5 332/339/5 331/340/5
f 333/341/5 334/342/5 336/343/5 335/344/5
f 337/345/6 338/346/6 340/347/6 339/348/6
f 339/349/7 340/350/7 342/351/7 341/352/7
f 341/353/5 343/354/5 337/355/5 339/356/5
f 344/357/8 345/358/8 347/359/8 346/360/8
f 346/361/6 347/362/6 349/363/6 348/364/6
f 348/365/5 350/366/5 344/367/5 346/368/5
f 351/369/9 352/370/9 354/371/9 353/372/9
f 353/373/8 354/374/8 356/375/8 355/376/8
f 355/377/5 357/378/5 351/379/5 353/380/5
f 358/381/7 359/382/7 361/383/7 360/384/7
f 360/385/9 361/386/9 363/387/9 362/388/9
f 362/389/5 364/390/5 358/391/5 360/392/5
f 365/393/5 366/394/5 368/395/5 367/396/5
